<svg width="117" height="58" viewBox="0 0 117 58" fill="none" xmlns="http://www.w3.org/2000/svg">
<path d="M13.2415 33.9303C13.2441 34.7899 13.1007 35.6438 12.8173 36.4562C12.5471 37.2442 12.1193 37.9701 11.5596 38.5906C10.9774 39.2235 10.2639 39.7241 9.46822 40.058C8.54159 40.4378 7.54572 40.6234 6.54323 40.6032C4.78823 40.6032 3.3462 40.1981 2.21715 39.3881C1.0881 38.578 0.34905 37.2875 0 35.5166L3.71182 34.6466C3.80595 35.3093 4.12102 35.9218 4.60687 36.3866C5.08181 36.8259 5.71259 37.0615 6.36187 37.042C7.49677 37.042 8.26605 36.6621 8.67555 35.9052C9.08505 35.1483 9.28687 34.1014 9.28687 32.7703V17.96H13.2415V33.9303Z" fill="white"/>
<path d="M19.4777 36.6708H23.1252C23.6666 36.6681 24.2075 36.6372 24.7457 36.578C25.2932 36.5209 25.8271 36.3729 26.3252 36.1401C26.8006 35.9194 27.2113 35.582 27.5186 35.1599C27.8612 34.6456 28.0273 34.0354 27.9924 33.4199C27.9924 32.2599 27.6092 31.4489 26.8429 30.9868C26.0765 30.5248 24.887 30.2966 23.2744 30.3024H19.4719L19.4777 36.6708ZM19.4777 26.9413H23.1077C24.4298 26.9413 25.4204 26.6871 26.0795 26.1786C26.3956 25.9468 26.6508 25.6428 26.8234 25.2925C26.996 24.9422 27.0809 24.5558 27.071 24.166C27.0564 23.2003 26.7171 22.4985 26.0327 22.0403C25.3482 21.5821 24.2543 21.3385 22.745 21.3385H19.4777V26.9413ZM15.5027 17.96H24.1958C25.0323 17.9568 25.8662 18.0541 26.6791 18.25C27.4626 18.4315 28.2042 18.7593 28.8641 19.2157C29.5579 19.6936 30.1191 20.337 30.4958 21.0866C30.8726 21.8363 31.0528 22.6679 31.0198 23.5048C31.0625 24.6296 30.6808 25.7298 29.9492 26.5904C29.2007 27.421 28.2301 28.0242 27.15 28.3304V28.4203C27.8251 28.4982 28.4807 28.6946 29.0864 29.0003C29.6635 29.2884 30.1806 29.6819 30.6103 30.1603C31.4934 31.1546 31.9747 32.4374 31.9616 33.7621C32.0011 34.812 31.7513 35.8526 31.2392 36.7723C30.7708 37.5588 30.1188 38.2222 29.3379 38.7066C28.5057 39.2111 27.5895 39.5646 26.6323 39.7506C25.6131 39.9586 24.5752 40.0626 23.5347 40.0609H15.5027V17.96Z" fill="white"/>
<path d="M45.4984 22.7016C45.0835 22.1024 44.4965 21.6406 43.8136 21.3763C43.1091 21.0948 42.356 20.9519 41.5964 20.9558C41.1463 20.9551 40.6977 21.0067 40.2597 21.1095C39.8431 21.2075 39.447 21.3773 39.0897 21.6112C38.7454 21.838 38.4598 22.142 38.2561 22.4986C38.0436 22.8923 37.9377 23.334 37.9489 23.7804C37.9263 24.1122 37.9863 24.4443 38.1235 24.7477C38.2607 25.0511 38.4709 25.3164 38.7358 25.5204C39.3321 25.9535 39.9881 26.2993 40.6838 26.547C41.4638 26.8409 42.314 27.1222 43.2344 27.3909C44.13 27.6492 44.986 28.0267 45.7792 28.5132C46.5624 28.9977 47.2285 29.6472 47.7301 30.4156C48.2547 31.2044 48.517 32.2542 48.517 33.565C48.542 34.6361 48.3157 35.6984 47.8559 36.668C47.4375 37.5241 46.8296 38.2755 46.0775 38.8662C45.3048 39.463 44.4242 39.908 43.483 40.177C42.4698 40.4671 41.4195 40.6097 40.365 40.6004C39.0029 40.6043 37.6506 40.3717 36.3694 39.9131C35.0809 39.4504 33.9407 38.6544 33.0671 37.6076L36.0565 34.7366C36.5304 35.4581 37.1857 36.0447 37.9577 36.4389C38.7295 36.8389 39.5877 37.0469 40.4586 37.045C40.9261 37.0447 41.3914 36.9822 41.8421 36.8594C42.2894 36.7407 42.7141 36.5507 43.0999 36.2968C43.4729 36.0524 43.7849 35.7272 44.0125 35.3456C44.2479 34.9436 44.3673 34.4851 44.3576 34.0203C44.3781 33.6701 44.3182 33.3198 44.1824 32.9958C44.0467 32.6718 43.8385 32.3825 43.5737 32.1498C42.9874 31.6793 42.3287 31.3053 41.6227 31.042C40.8476 30.752 39.9964 30.462 39.0751 30.172C38.1815 29.9124 37.3253 29.5401 36.5274 29.0642C35.7459 28.5897 35.0797 27.9501 34.5764 27.1908C34.0519 26.4175 33.7896 25.3735 33.7896 24.0588C33.7708 23.0301 34.0207 22.0141 34.515 21.1095C34.9753 20.2931 35.609 19.5856 36.3724 19.036C37.1684 18.4729 38.0601 18.0564 39.0049 17.8064C39.9823 17.5381 40.9917 17.4016 42.0059 17.4004C43.1648 17.398 44.3168 17.5771 45.4194 17.9311C46.5273 18.2868 47.5421 18.881 48.3912 19.6711L45.4984 22.7016Z" fill="white"/>
<path d="M117 0H58.5V58H117V0Z" fill="#F26522"/>
<path d="M88.3583 26.5524C89.257 23.3661 89.8013 20.0918 89.9817 16.7881C89.0842 19.9747 88.5399 23.2488 88.3583 26.5524V26.5524ZM87.7499 26.6046C88.0278 23.4842 88.0219 20.8046 88.0073 20.3116C87.9927 19.8186 88.0424 16.2864 87.7499 13.1631C87.4574 16.2864 87.475 19.8331 87.4896 20.3116C87.5042 20.7901 87.4574 23.49 87.7499 26.6046V26.6046ZM90.4789 22.6954C90.873 21.6016 91.1667 20.4747 91.3564 19.3285C90.8144 20.3536 90.3567 21.4204 89.9875 22.5185C89.592 23.6119 89.2983 24.7389 89.11 25.8854C89.6493 24.859 90.107 23.7924 90.4789 22.6954V22.6954ZM105.75 29.6554C107.31 29.6496 108.842 29.2504 110.202 28.4954C111.582 27.7111 112.607 26.4341 113.069 24.9255C113.013 24.9748 112.952 25.0502 112.896 25.1111C111.261 26.9323 108.778 27.521 106.514 27.84C105.101 28.0401 103.679 28.1619 102.258 28.2518C101.401 28.304 100.503 28.3417 99.7453 27.8342C99.3986 27.6086 99.1437 27.2685 99.0258 26.8743C98.7333 25.781 99.6108 24.9545 100.523 24.6152C101.296 24.3252 102.147 24.244 102.863 23.8235C102.664 23.3189 102.003 23.2261 101.506 23.3827C101.009 23.5393 100.556 23.8641 100.044 23.9163L102.325 22.3909C102.033 21.9472 101.372 22.0139 100.93 22.2894C100.488 22.5649 100.129 22.9941 99.6459 23.1826L101.477 21.1265C101.079 20.7727 100.453 21.0163 100.088 21.4165C99.7219 21.8167 99.4704 22.3242 99.0404 22.6316L100.342 20.1434C99.8799 19.9027 99.3358 20.2971 99.0726 20.764C98.8093 21.2309 98.6894 21.7906 98.353 22.214L99.0199 19.488C98.5139 19.3807 98.0752 19.9114 97.9318 20.4363C97.7885 20.9612 97.8031 21.5412 97.5721 22.0284V19.14C97.0631 19.1603 96.7618 19.778 96.7443 20.3C96.7267 20.822 96.8759 21.3846 96.7677 21.9095L96.1183 19.2183C95.6211 19.3836 95.4836 20.0883 95.6006 20.6132C95.7176 21.1381 95.9955 21.6485 96.013 22.1995L94.7173 19.72C94.2814 20.01 94.299 20.6944 94.5271 21.17C94.7553 21.6456 95.1385 22.04 95.2876 22.5707L93.48 20.5407C93.1231 20.9351 93.3133 21.6108 93.6584 22.0226C94.0036 22.4344 94.4716 22.7273 94.7377 23.1826L92.465 21.6514C92.2105 22.1183 92.544 22.7186 92.9652 23.026C93.3864 23.3334 93.9012 23.49 94.2668 23.867L91.7513 22.997C91.687 23.6669 92.3363 24.1773 92.9476 24.3571C93.4741 24.5137 94.0474 24.5485 94.533 24.795C94.5636 24.8101 94.597 24.8189 94.6311 24.8209C94.6653 24.823 94.6994 24.8182 94.7317 24.8068C94.7639 24.7954 94.7935 24.7777 94.8186 24.7548C94.8438 24.7318 94.864 24.7041 94.8781 24.6732C95.0265 24.3638 95.2435 24.0916 95.513 23.8772C95.7825 23.6627 96.0974 23.5115 96.4342 23.4349C96.1532 23.5332 95.8991 23.6949 95.692 23.9073C95.4849 24.1197 95.3304 24.3769 95.2408 24.6587C95.1947 24.8793 95.1169 25.0922 95.0098 25.2909C94.7582 25.6534 94.2697 25.6824 93.8398 25.7027C91.6695 25.8109 89.5688 26.4972 87.7587 27.6892C90.0201 26.8258 92.4326 26.4187 94.8547 26.4915C95.0149 26.4813 95.174 26.5231 95.3081 26.6104C95.4474 26.7586 95.5302 26.9504 95.5421 27.1527C96.1136 30.6237 96.0967 34.1649 95.4924 37.6304C95.4882 37.6635 95.4824 37.6964 95.4748 37.729C95.459 37.8188 95.4252 37.9046 95.3754 37.9813C95.2907 38.0663 95.1869 38.1303 95.0726 38.1681C94.9582 38.2059 94.8365 38.2164 94.7173 38.1988C92.2286 38.2408 89.8082 39.0128 87.7616 40.4173V40.4173L90.6866 43.1694L91.7806 44.1989C92.3465 42.9037 93.2064 41.7554 94.2931 40.8436C93.3571 42.0045 92.7179 43.3725 92.4299 44.8311C94.4989 40.8443 97.6626 37.5187 101.556 35.2379V35.2379C102.725 35.0329 103.878 34.748 105.007 34.3853C105.758 34.1507 106.454 33.7702 107.055 33.2659C106.923 33.3068 106.79 33.3407 106.654 33.3674L106.525 33.3906C106.449 33.3906 106.359 33.4167 106.271 33.4283C106.183 33.4399 106.177 33.4283 106.128 33.4457C105.237 33.5271 104.342 33.3444 103.557 32.9208C104.699 33.1712 105.888 33.1311 107.011 32.8041C108.134 32.477 109.155 31.8737 109.98 31.0503C110.751 30.3026 111.456 29.4916 112.089 28.6259V28.6259C112.414 28.1711 112.671 27.672 112.852 27.144C111.979 28.1191 110.872 28.8607 109.633 29.3005C108.395 29.7404 107.064 29.8644 105.765 29.6612L105.75 29.6554ZM96.2675 25.6853C96.181 25.6905 96.0948 25.6699 96.0203 25.626C95.9457 25.5821 95.8861 25.517 95.8493 25.4392C95.8125 25.3614 95.8 25.2744 95.8137 25.1895C95.8273 25.1046 95.8663 25.0257 95.9256 24.9631C95.985 24.9004 96.062 24.8568 96.1466 24.8381C96.2312 24.8193 96.3195 24.8261 96.4002 24.8577C96.4808 24.8893 96.5501 24.9441 96.5989 25.0151C96.6477 25.0862 96.6739 25.1701 96.6741 25.2561C96.676 25.3108 96.667 25.3653 96.6476 25.4166C96.6282 25.4678 96.5988 25.5147 96.561 25.5546C96.5232 25.5945 96.4778 25.6266 96.4274 25.649C96.377 25.6715 96.3227 25.6838 96.2675 25.6853V25.6853ZM87.1649 26.303C87.0858 24.6783 86.8992 23.0604 86.6062 21.46C86.3457 19.857 85.9932 18.2701 85.5503 16.7069C85.6261 18.3334 85.8098 19.9531 86.1002 21.5557C86.3651 23.1566 86.7206 24.7416 87.1649 26.303V26.303ZM80.7884 38.222C80.669 38.2376 80.5476 38.2259 80.4335 38.1877C80.3194 38.1495 80.2157 38.0858 80.1303 38.0016C80.0805 37.9249 80.0467 37.8391 80.0308 37.7493C80.0224 37.7179 80.0166 37.6859 80.0133 37.6536C79.4089 34.1861 79.3921 30.643 79.9636 27.1701C79.9762 26.9688 80.0589 26.7782 80.1976 26.6307C80.3312 26.5422 80.4907 26.5003 80.6509 26.5118C83.0738 26.439 85.487 26.8452 87.7499 27.7066C85.9396 26.5155 83.8388 25.8302 81.6688 25.723C81.2447 25.7027 80.7562 25.6737 80.4988 25.3112C80.3899 25.1133 80.312 24.9001 80.2678 24.679C80.179 24.3971 80.0248 24.1398 79.8175 23.9278C79.6103 23.7158 79.3557 23.5549 79.0744 23.4581C79.4116 23.5337 79.727 23.6846 79.9966 23.8991C80.2662 24.1137 80.483 24.3863 80.6305 24.6964C80.6451 24.7268 80.6658 24.7539 80.6912 24.7763C80.7166 24.7986 80.7462 24.8157 80.7784 24.8265C80.8105 24.8373 80.8446 24.8417 80.8784 24.8392C80.9123 24.8368 80.9454 24.8277 80.9756 24.8124C81.4612 24.5659 82.0345 24.5224 82.561 24.3774C83.1752 24.1976 83.8216 23.6872 83.7573 23.0144L81.2418 23.8844L82.4118 23.1362H82.3913C82.4469 23.1014 82.5025 23.0695 82.5522 23.0318C82.9734 22.7418 83.3068 22.127 83.0524 21.6601L80.7621 23.2L81.7537 22.127C81.7858 22.0893 81.8209 22.0574 81.8531 22.0226C82.1983 21.6108 82.3884 20.9351 82.0315 20.5407L80.2239 22.5707L80.92 21.2918L80.9932 21.1642C81.2213 20.6828 81.2389 19.9839 80.803 19.7142L79.5043 22.2198L79.8349 20.9409C79.8699 20.8372 79.8992 20.7317 79.9226 20.6248C80.0396 20.0883 79.8992 19.3952 79.4049 19.2299L78.7555 21.9211L78.7789 20.4247C78.7789 20.3841 78.7789 20.3406 78.7789 20.3C78.7614 19.7635 78.4601 19.14 77.9512 19.1226V21.9762L77.6411 20.59V20.6277C77.6236 20.5465 77.6119 20.4653 77.5885 20.3841C77.4451 19.8592 77.0035 19.3285 76.5004 19.4358L77.1673 22.1618L76.5472 20.9148V20.9496C76.5121 20.8742 76.4799 20.7988 76.4389 20.7263C76.1757 20.2594 75.6316 19.8563 75.1695 20.1028L76.4594 22.62L75.7194 21.779C75.6241 21.6461 75.5206 21.5192 75.4093 21.3991C75.0437 21.0076 74.4178 20.7611 74.02 21.1091L75.851 23.1681L74.7629 22.4083L74.7805 22.4257C74.7119 22.3719 74.6406 22.3215 74.5669 22.2749C74.1253 21.9849 73.4671 21.9298 73.1717 22.3764L75.4532 23.9018L74.0229 23.3769H74.0434L73.9878 23.3566C73.4905 23.2 72.8178 23.2899 72.6306 23.7974C73.3501 24.2179 74.2013 24.2962 74.9706 24.5891C75.8715 24.9313 76.7724 25.7491 76.4682 26.8482C76.3594 27.2528 76.107 27.605 75.7574 27.84C74.9969 28.3446 74.1019 28.3098 73.2448 28.2576C71.8233 28.1677 70.4017 28.0459 68.989 27.8458C66.725 27.5297 64.2417 26.9352 62.6066 25.1169C62.5511 25.056 62.4896 24.9806 62.4341 24.9313C62.8947 26.4405 63.9203 27.7178 65.3006 28.5012C66.6617 29.2549 68.1934 29.654 69.7524 29.6612C68.4529 29.8644 67.1228 29.7404 65.8843 29.3005C64.6458 28.8607 63.5388 28.1191 62.6651 27.144C62.8755 27.7543 63.1869 28.3257 63.5865 28.8347C64.1849 29.6236 64.8419 30.3671 65.5521 31.059L65.5814 31.0851L65.5346 31.0648C66.3603 31.8856 67.3817 32.4865 68.5039 32.8119C69.6262 33.1374 70.8132 33.1768 71.9549 32.9266C71.2146 33.3246 70.3767 33.5094 69.5359 33.4602H69.5096C69.2937 33.4414 69.0789 33.4114 68.8661 33.3703C68.7328 33.3431 68.601 33.3093 68.4712 33.2688H68.4859C68.4762 33.2701 68.4663 33.2701 68.4566 33.2688L68.518 33.3065C68.986 33.6888 69.511 33.997 70.0742 34.22H70.0508C71.3193 34.6726 72.6247 35.0161 73.9527 35.2466C77.8424 37.5279 81.0028 40.8524 83.0699 44.8369C82.7775 43.383 82.1364 42.0203 81.2008 40.8639C82.287 41.7774 83.1467 42.9265 83.7134 44.2221L84.4008 43.5725L87.7675 40.4318C85.707 39.0298 83.2754 38.2611 80.7767 38.222H80.7884ZM79.2294 25.6853C79.1428 25.6905 79.0567 25.6699 78.9821 25.626C78.9076 25.5821 78.848 25.517 78.8112 25.4392C78.7743 25.3614 78.7619 25.2744 78.7755 25.1895C78.7892 25.1046 78.8282 25.0257 78.8875 24.9631C78.9469 24.9004 79.0238 24.8568 79.1085 24.8381C79.1931 24.8193 79.2814 24.8261 79.3621 24.8577C79.4427 24.8893 79.5119 24.9441 79.5608 25.0151C79.6096 25.0862 79.6358 25.1701 79.636 25.2561C79.6391 25.3664 79.5981 25.4734 79.522 25.5538C79.4458 25.6342 79.3406 25.6815 79.2294 25.6853ZM86.3898 25.8738C86.2021 24.7272 85.9084 23.6001 85.5123 22.5069C85.1432 21.4088 84.6854 20.342 84.1434 19.3169C84.3311 20.4635 84.6248 21.5906 85.0209 22.6838C85.3886 23.7824 85.8465 24.8493 86.3898 25.8738" fill="white"/>
</svg>
