<svg width="1348" height="668" viewBox="0 0 1348 668" fill="none" xmlns="http://www.w3.org/2000/svg">
<g clip-path="url(#clip0)">
<path d="M152.505 390.777C152.536 400.678 150.884 410.512 147.621 419.869C144.508 428.945 139.581 437.306 133.135 444.451C126.429 451.741 118.212 457.506 109.048 461.352C98.3756 465.726 86.9058 467.864 75.3599 467.631C55.1471 467.631 38.539 462.966 25.5355 453.636C12.5319 444.307 4.02009 429.444 0 409.047L42.75 399.027C43.834 406.661 47.4628 413.715 53.0585 419.067C58.5284 424.128 65.7933 426.841 73.2712 426.616C86.3422 426.616 95.2021 422.24 99.9184 413.523C104.635 404.805 106.959 392.748 106.959 377.417V206.844H152.505V390.777Z" fill="white"/>
<path d="M224.333 422.347H266.342C272.577 422.316 278.807 421.959 285.005 421.278C291.311 420.62 297.46 418.915 303.196 416.235C308.672 413.692 313.402 409.806 316.941 404.945C320.887 399.021 322.801 391.994 322.398 384.905C322.398 371.545 317.985 362.205 309.159 356.883C300.333 351.561 286.633 348.934 268.06 349H224.265L224.333 422.347ZM224.333 310.29H266.139C281.366 310.29 292.775 307.362 300.366 301.506C304.008 298.835 306.947 295.335 308.934 291.3C310.922 287.265 311.901 282.815 311.787 278.326C311.618 267.204 307.71 259.121 299.827 253.844C291.944 248.567 279.345 245.761 261.962 245.761H224.333V310.29ZM178.551 206.85H278.671C288.306 206.812 297.91 207.934 307.272 210.19C316.297 212.28 324.837 216.055 332.437 221.312C340.428 226.815 346.891 234.226 351.231 242.86C355.57 251.493 357.646 261.072 357.265 270.711C357.757 283.665 353.361 296.336 344.935 306.248C336.314 315.814 325.136 322.762 312.696 326.288V327.324C320.471 328.221 328.022 330.483 334.998 334.004C341.645 337.321 347.6 341.854 352.549 347.364C362.72 358.815 368.263 373.589 368.113 388.847C368.567 400.938 365.69 412.923 359.792 423.516C354.398 432.573 346.888 440.214 337.895 445.794C328.31 451.604 317.758 455.675 306.733 457.818C294.996 460.213 283.042 461.41 271.058 461.391H178.551V206.85Z" fill="white"/>
<path d="M524.019 261.454C519.24 254.553 512.479 249.235 504.614 246.191C496.5 242.948 487.827 241.303 479.079 241.348C473.895 241.34 468.728 241.934 463.683 243.118C458.885 244.247 454.324 246.202 450.208 248.896C446.243 251.508 442.954 255.01 440.607 259.116C438.16 263.651 436.941 268.738 437.07 273.879C436.81 277.7 437.5 281.526 439.08 285.02C440.66 288.514 443.082 291.57 446.132 293.919C453 298.907 460.556 302.89 468.568 305.743C477.552 309.127 487.344 312.367 497.944 315.462C508.258 318.437 518.118 322.785 527.253 328.388C536.274 333.968 543.945 341.448 549.722 350.298C555.764 359.383 558.784 371.474 558.784 386.571C559.073 398.907 556.466 411.142 551.171 422.309C546.352 432.168 539.35 440.822 530.689 447.626C521.789 454.5 511.647 459.624 500.808 462.723C489.138 466.064 477.042 467.706 464.896 467.599C449.208 467.644 433.634 464.965 418.878 459.683C404.038 454.355 390.906 445.187 380.845 433.13L415.274 400.064C420.732 408.374 428.279 415.13 437.171 419.67C446.06 424.277 455.944 426.672 465.974 426.651C471.358 426.647 476.717 425.928 481.909 424.513C487.06 423.146 491.952 420.958 496.394 418.034C500.69 415.219 504.285 411.473 506.905 407.078C509.617 402.448 510.992 397.168 510.88 391.815C511.116 387.781 510.426 383.746 508.863 380.015C507.299 376.283 504.902 372.952 501.852 370.272C495.1 364.853 487.513 360.545 479.382 357.513C470.455 354.173 460.651 350.833 450.04 347.493C439.748 344.503 429.887 340.215 420.698 334.734C411.697 329.269 404.024 321.902 398.228 313.158C392.186 304.251 389.166 292.227 389.166 277.086C388.949 265.238 391.827 253.537 397.52 243.118C402.822 233.715 410.121 225.567 418.912 219.237C428.08 212.752 438.35 207.955 449.231 205.075C460.489 201.985 472.114 200.412 483.795 200.399C497.143 200.371 510.411 202.434 523.109 206.511C535.869 210.608 547.557 217.451 557.336 226.551L524.019 261.454Z" fill="white"/>
<path d="M1347.52 0H673.759V668H1347.52V0Z" fill="#F26522"/>
<path d="M1017.64 305.816C1027.99 269.118 1034.26 231.408 1036.34 193.358C1026 230.059 1019.73 267.767 1017.64 305.816V305.816ZM1010.63 306.417C1013.83 270.478 1013.76 239.617 1013.6 233.939C1013.43 228.261 1014 187.58 1010.63 151.608C1007.26 187.58 1007.46 228.428 1007.63 233.939C1007.8 239.45 1007.26 270.545 1010.63 306.417V306.417ZM1042.06 261.394C1046.6 248.796 1049.98 235.817 1052.17 222.616C1045.93 234.423 1040.65 246.71 1036.4 259.356C1031.85 271.949 1028.46 284.929 1026.3 298.134C1032.51 286.312 1037.78 274.028 1042.06 261.394V261.394ZM1217.95 341.554C1235.9 341.488 1253.55 336.89 1269.22 328.194C1285.11 319.161 1296.92 304.454 1302.23 287.078C1301.59 287.646 1300.89 288.514 1300.25 289.216C1281.41 310.191 1252.81 316.971 1226.74 320.645C1210.47 322.95 1194.1 324.353 1177.72 325.388C1167.85 325.989 1157.51 326.424 1148.79 320.579C1144.79 317.98 1141.86 314.063 1140.5 309.523C1137.13 296.931 1147.24 287.412 1157.75 283.504C1166.64 280.164 1176.44 279.229 1184.7 274.386C1182.41 268.575 1174.79 267.506 1169.07 269.309C1163.34 271.113 1158.12 274.854 1152.22 275.455L1178.5 257.887C1175.13 252.776 1167.52 253.545 1162.43 256.718C1157.34 259.891 1153.2 264.834 1147.64 267.005L1168.73 243.324C1164.15 239.249 1156.94 242.055 1152.73 246.664C1148.52 251.273 1145.62 257.119 1140.67 260.659L1155.66 232.002C1150.34 229.23 1144.07 233.772 1141.04 239.149C1138.01 244.527 1136.62 250.973 1132.75 255.849L1140.43 224.453C1134.6 223.217 1129.55 229.33 1127.9 235.375C1126.25 241.421 1126.42 248.1 1123.76 253.712V220.445C1117.89 220.679 1114.42 227.793 1114.22 233.805C1114.02 239.817 1115.74 246.297 1114.49 252.342L1107.01 221.347C1101.29 223.251 1099.7 231.367 1101.05 237.413C1102.4 243.458 1105.6 249.336 1105.8 255.682L1090.88 227.125C1085.86 230.465 1086.06 238.348 1088.69 243.825C1091.31 249.303 1095.73 253.845 1097.45 259.958L1076.63 236.578C1072.52 241.12 1074.71 248.902 1078.68 253.645C1082.66 258.388 1088.05 261.761 1091.11 267.005L1064.94 249.37C1062.01 254.747 1065.85 261.661 1070.7 265.201C1075.55 268.742 1081.48 270.545 1085.69 274.887L1056.72 264.867C1055.98 272.583 1063.45 278.461 1070.49 280.532C1076.56 282.335 1083.16 282.736 1088.75 285.575C1089.11 285.749 1089.49 285.851 1089.88 285.874C1090.28 285.898 1090.67 285.842 1091.04 285.711C1091.41 285.58 1091.75 285.377 1092.04 285.112C1092.33 284.848 1092.57 284.528 1092.73 284.173C1094.44 280.609 1096.94 277.475 1100.04 275.005C1103.14 272.535 1106.77 270.793 1110.65 269.911C1107.41 271.043 1104.49 272.905 1102.1 275.352C1099.72 277.798 1097.94 280.76 1096.91 284.005C1096.38 286.546 1095.48 288.999 1094.24 291.287C1091.35 295.462 1085.72 295.796 1080.77 296.029C1055.77 297.276 1031.58 305.18 1010.73 318.909C1036.78 308.965 1064.56 304.275 1092.46 305.114C1094.3 304.997 1096.14 305.478 1097.68 306.484C1099.29 308.191 1100.24 310.4 1100.38 312.729C1106.96 352.706 1106.76 393.491 1099.8 433.404C1099.76 433.785 1099.69 434.164 1099.6 434.539C1099.42 435.574 1099.03 436.562 1098.46 437.445C1097.48 438.424 1096.29 439.161 1094.97 439.597C1093.65 440.032 1092.25 440.153 1090.88 439.95C1062.21 440.434 1034.34 449.325 1010.77 465.501V465.501L1044.45 497.198L1057.05 509.055C1063.57 494.137 1073.47 480.913 1085.99 470.411C1075.21 483.782 1067.85 499.537 1064.53 516.336C1088.36 470.419 1124.8 432.117 1169.64 405.849V405.849C1183.1 403.487 1196.38 400.206 1209.39 396.029C1218.04 393.328 1226.05 388.945 1232.97 383.137C1231.46 383.608 1229.91 383.999 1228.36 384.306L1226.87 384.573C1226 384.573 1224.95 384.873 1223.94 385.007C1222.93 385.141 1222.87 385.007 1222.29 385.207C1212.04 386.146 1201.73 384.041 1192.68 379.162C1205.84 382.047 1219.53 381.584 1232.46 377.818C1245.4 374.051 1257.16 367.103 1266.66 357.619C1275.54 349.008 1283.66 339.667 1290.95 329.697V329.697C1294.7 324.459 1297.66 318.71 1299.74 312.629C1289.68 323.86 1276.93 332.401 1262.67 337.467C1248.4 342.533 1233.08 343.961 1218.12 341.62L1217.95 341.554ZM1108.73 295.829C1107.73 295.889 1106.74 295.651 1105.88 295.146C1105.02 294.641 1104.34 293.891 1103.91 292.995C1103.49 292.099 1103.35 291.097 1103.5 290.119C1103.66 289.141 1104.11 288.233 1104.79 287.511C1105.48 286.789 1106.36 286.288 1107.34 286.071C1108.31 285.855 1109.33 285.934 1110.26 286.297C1111.19 286.661 1111.98 287.293 1112.55 288.111C1113.11 288.929 1113.41 289.896 1113.41 290.886C1113.44 291.516 1113.33 292.144 1113.11 292.734C1112.88 293.324 1112.55 293.865 1112.11 294.324C1111.68 294.784 1111.15 295.154 1110.57 295.412C1109.99 295.67 1109.37 295.812 1108.73 295.829V295.829ZM1003.89 302.943C1002.98 284.231 1000.83 265.598 997.459 247.165C994.459 228.703 990.398 210.426 985.298 192.423C986.171 211.155 988.286 229.811 991.631 248.268C994.682 266.706 998.776 284.96 1003.89 302.943V302.943ZM930.454 440.217C929.079 440.398 927.681 440.262 926.366 439.822C925.052 439.382 923.858 438.649 922.874 437.679C922.301 436.796 921.912 435.808 921.729 434.773C921.632 434.412 921.564 434.043 921.527 433.671C914.566 393.735 914.372 352.928 920.954 312.93C921.099 310.612 922.052 308.416 923.649 306.718C925.188 305.698 927.025 305.216 928.871 305.348C956.775 304.51 984.569 309.188 1010.63 319.109C989.781 305.391 965.587 297.499 940.594 296.263C935.709 296.029 930.084 295.695 927.119 291.52C925.865 289.241 924.968 286.786 924.458 284.239C923.435 280.993 921.659 278.03 919.272 275.588C916.885 273.146 913.954 271.293 910.713 270.178C914.597 271.049 918.229 272.786 921.335 275.257C924.44 277.729 926.937 280.869 928.635 284.44C928.804 284.79 929.041 285.103 929.334 285.36C929.626 285.617 929.968 285.814 930.338 285.939C930.709 286.063 931.101 286.113 931.491 286.085C931.881 286.057 932.262 285.952 932.61 285.776C938.202 282.937 944.805 282.436 950.869 280.766C957.944 278.695 965.389 272.817 964.647 265.068L935.676 275.088L949.151 266.47H948.915C949.555 266.07 950.195 265.702 950.768 265.268C955.619 261.928 959.459 254.847 956.529 249.47L930.151 267.205L941.571 254.847C941.942 254.413 942.346 254.046 942.717 253.645C946.692 248.902 948.882 241.12 944.772 236.578L923.952 259.958L931.97 245.228L932.812 243.759C935.44 238.214 935.642 230.165 930.623 227.059L915.665 255.916L919.472 241.187C919.876 239.992 920.213 238.777 920.483 237.546C921.83 231.367 920.213 223.384 914.52 221.481L907.041 252.476L907.311 235.242C907.311 234.774 907.311 234.273 907.311 233.805C907.108 227.626 903.639 220.445 897.777 220.245V253.11L894.206 237.145V237.579C894.004 236.644 893.869 235.709 893.6 234.774C891.949 228.729 886.862 222.616 881.068 223.852L888.749 255.248L881.607 240.886V241.287C881.202 240.418 880.832 239.55 880.36 238.715C877.328 233.338 871.062 228.695 865.74 231.534L880.596 260.525L872.073 250.839C870.976 249.308 869.783 247.847 868.502 246.464C864.291 241.955 857.082 239.116 852.5 243.124L873.589 266.838L861.057 258.087L861.259 258.288C860.47 257.668 859.649 257.088 858.8 256.551C853.713 253.211 846.133 252.576 842.731 257.72L869.007 275.288L852.534 269.243H852.77L852.13 269.009C846.403 267.205 838.655 268.241 836.499 274.086C844.786 278.929 854.589 279.831 863.449 283.204C873.825 287.145 884.201 296.564 880.697 309.223C879.444 313.883 876.537 317.938 872.511 320.645C863.752 326.457 853.444 326.056 843.573 325.455C827.201 324.42 810.828 323.017 794.557 320.712C768.483 317.071 739.882 310.224 721.05 289.283C720.41 288.581 719.703 287.713 719.062 287.145C724.368 304.527 736.18 319.238 752.077 328.26C767.753 336.942 785.394 341.538 803.35 341.62C788.383 343.961 773.064 342.533 758.8 337.467C744.536 332.401 731.787 323.86 721.724 312.629C724.147 319.659 727.733 326.239 732.336 332.101C739.227 341.188 746.795 349.751 754.974 357.719L755.311 358.02L754.772 357.786C764.283 367.239 776.045 374.16 788.971 377.908C801.896 381.657 815.567 382.111 828.717 379.229C820.19 383.813 810.54 385.942 800.857 385.374H800.554C798.067 385.158 795.593 384.812 793.142 384.339C791.607 384.027 790.089 383.636 788.594 383.17H788.763C788.651 383.185 788.538 383.185 788.426 383.17L789.133 383.604C794.523 388.008 800.569 391.557 807.055 394.125H806.786C821.396 399.338 836.431 403.294 851.726 405.949C896.524 432.223 932.924 470.512 956.731 516.403C953.363 499.658 945.979 483.964 935.204 470.645C947.714 481.166 957.615 494.4 964.142 509.322L972.059 501.84L1010.83 465.668C987.103 449.521 959.098 440.668 930.319 440.217H930.454ZM912.499 295.829C911.502 295.889 910.51 295.651 909.651 295.146C908.792 294.641 908.106 293.891 907.682 292.995C907.258 292.099 907.115 291.097 907.271 290.119C907.428 289.141 907.877 288.233 908.561 287.511C909.245 286.789 910.131 286.288 911.106 286.071C912.08 285.855 913.098 285.934 914.027 286.297C914.955 286.661 915.753 287.293 916.315 288.111C916.878 288.929 917.179 289.896 917.181 290.886C917.218 292.156 916.745 293.389 915.868 294.315C914.991 295.241 913.779 295.785 912.499 295.829ZM994.967 298C992.805 284.794 989.422 271.814 984.86 259.223C980.609 246.576 975.336 234.29 969.094 222.483C971.256 235.689 974.639 248.669 979.201 261.26C983.436 273.913 988.709 286.2 994.967 298" fill="white"/>
</g>
<defs>
<clipPath id="clip0">
<rect width="1347.52" height="668" fill="white"/>
</clipPath>
</defs>
</svg>
